<?xml version="1.0" encoding="UTF-8"?>
<!-- Generated by jsxcad -->
<!DOCTYPE svg PUBLIC "-//W3C//DTD SVG 1.1 Tiny//EN" "http://www.w3.org/Graphics/SVG/1.1/DTD/svg11-tiny.dtd">
<svg baseProfile="tiny" height="100.07686729514138mm" width="20mm" viewBox="-10 -50.03843364757069 20 100.07686729514138" version="1.1" stroke="black" stroke-width=".1" fill="none" xmlns="http://www.w3.org/2000/svg">
<path fill="none" stroke="#000000" d="M 10 50.03843364757069 L -5 50.03843364757069 M 10 50.03843364757069 L -5 42.962291515591005 M 10 42.962291515591005 L -5 42.962291515591005 M 5 36.897026831036975 L 4.285714285714285 37.907904278462645 L 2.8571428571428568 38.91878172588832 L 0.7142857142857135 39.42422044960116 L -0.7142857142857144 39.42422044960116 L -2.857142857142857 38.91878172588832 L -4.285714285714286 37.907904278462645 L -5 36.897026831036975 L -5 35.380710659898476 L -4.285714285714286 34.3698332124728 L -2.857142857142857 33.35895576504713 L -0.7142857142857144 32.8535170413343 L 0.7142857142857135 32.8535170413343 L 2.8571428571428568 33.35895576504713 L 4.285714285714285 34.3698332124728 L 5 35.380710659898476 L 5 36.897026831036975 M 6.428571428571427 14.15228426395939 L 7.857142857142856 14.657722987672225 L 9.285714285714285 15.668600435097897 L 10 16.679477882523564 L 10 18.701232777374905 L 9.285714285714285 19.712110224800583 L 7.857142857142856 20.722987672226253 L 6.428571428571427 21.228426395939085 L 4.285714285714285 21.73386511965192 L 0.7142857142857135 21.73386511965192 L -1.4285714285714288 21.228426395939085 L -2.857142857142857 20.722987672226253 L -4.285714285714286 19.712110224800583 L -5 18.701232777374905 L -5 16.679477882523564 L -4.285714285714286 15.668600435097897 L -2.857142857142857 14.657722987672225 L -1.4285714285714288 14.15228426395939 L 0.7142857142857135 14.15228426395939 M 0.7142857142857135 16.679477882523564 L 0.7142857142857135 14.15228426395939 M 0.7142857142857135 11.119651921682378 L 0.7142857142857135 5.054387237128361 L 2.1428571428571423 5.054387237128361 L 3.571428571428571 5.5598259608411915 L 4.285714285714285 6.065264684554022 L 5 7.076142131979695 L 5 8.592458303118203 L 4.285714285714285 9.60333575054387 L 2.8571428571428568 10.614213197969542 L 0.7142857142857135 11.119651921682378 L -0.7142857142857144 11.119651921682378 L -2.857142857142857 10.614213197969542 L -4.285714285714286 9.60333575054387 L -5 8.592458303118203 L -5 7.076142131979695 L -4.285714285714286 6.065264684554022 L -2.857142857142857 5.054387237128361 M 5 -0.505438723712831 L 4.285714285714285 0.505438723712831 L 2.8571428571428568 1.5163161711385131 L 0.7142857142857135 2.021754894851344 L -0.7142857142857144 2.021754894851344 L -2.857142857142857 1.5163161711385131 L -4.285714285714286 0.505438723712831 L -5 -0.505438723712831 L -5 -2.021754894851334 L -4.285714285714286 -3.0326323422770165 L -2.857142857142857 -4.043509789702679 L -0.7142857142857144 -4.548948513415519 L 0.7142857142857135 -4.548948513415519 L 2.8571428571428568 -4.043509789702679 L 4.285714285714285 -3.0326323422770165 L 5 -2.021754894851334 L 5 -0.505438723712831 M 5 -8.087019579405366 L -5 -8.087019579405366 M 2.1428571428571423 -8.087019579405366 L 4.285714285714285 -9.60333575054387 L 5 -10.614213197969532 L 5 -12.130529369108045 L 4.285714285714285 -13.141406816533717 L 2.1428571428571423 -13.646845540246549 L -5 -13.646845540246549 M 2.1428571428571423 -13.646845540246549 L 4.285714285714285 -15.163161711385062 L 5 -16.174039158810725 L 5 -17.690355329949227 L 4.285714285714285 -18.70123277737491 L 2.1428571428571423 -19.20667150108774 L -5 -19.20667150108774 M 0.7142857142857135 -22.744742567077587 L 0.7142857142857135 -28.81000725163161 L 2.1428571428571423 -28.81000725163161 L 3.571428571428571 -28.304568527918768 L 4.285714285714285 -27.799129804205936 L 5 -26.788252356780266 L 5 -25.271936185641774 L 4.285714285714285 -24.26105873821609 L 2.8571428571428568 -23.25018129079042 L 0.7142857142857135 -22.744742567077587 L -0.7142857142857144 -22.744742567077587 L -2.857142857142857 -23.25018129079042 L -4.285714285714286 -24.26105873821609 L -5 -25.271936185641774 L -5 -26.788252356780266 L -4.285714285714286 -27.799129804205936 L -2.857142857142857 -28.81000725163161 M 10 -32.8535170413343 L -2.1428571428571432 -32.8535170413343 L -4.285714285714286 -33.35895576504713 L -5 -34.3698332124728 L -5 -35.38071065989846 M 5 -31.337200870195783 L 5 -34.875271936185634 M 5 -38.41334300217548 L -5 -38.41334300217548 M 0.7142857142857135 -38.41334300217548 L 2.8571428571428568 -38.91878172588831 L 4.285714285714285 -39.92965917331399 L 5 -40.94053662073966 L 5 -42.456852791878156 M 5 -43.97316896301668 L -5 -47.00580130529369 M 5 -50.03843364757069 L -5 -47.00580130529369 L -7.857142857142857 -45.994923857868 L -9.285714285714285 -44.984046410442346 L -10 -43.97316896301668 L -10 -43.46773023930384"/>
</svg>